# File created by Blade
# Date/Time:  Wed Jan 21 16:02:01 2015
# Frame Rate: 120.000 fps
#------------------------------------------------------
:FULLY-SPECIFIED
:DEGREES
1507
root 21.204750 32.498412 -19.273294 -169.943729 4.390597 -180.098644
Spine -27.221228 7.941019 -25.579898
Head 16.306284 -13.764926 2.996104
LeftShoulder -13.976820 -30.821110 -0.154459
LeftArm -36.472484 -9.702620 -47.029683
LeftForeArm 4.964053 0.000000 16.125286
LeftHand -2.790371 -0.000000 3.433651
LeftHandThumb1 -26.253704 0.000000 33.147579
RightShoulder -8.492073 14.605229 -41.206633
RightArm 40.146714 50.852202 -8.426306
RightForeArm -37.421285 -0.000000 13.806794
RightHand -0.129732 -0.000000 -31.513582
RightHandThumb1 -24.326973 -0.000000 -32.862282
LeftUpLeg 13.534502 0.866393 -17.138248
LeftLeg -1.611565 -0.000000 0.000000
LeftFoot -34.820657 18.197145 -16.157222
LeftToeBase 16.763747 -0.000000 -0.000000
RightUpLeg -17.539251 9.330453 23.824272
RightLeg -3.181591 -0.000000 0.000000
RightFoot -4.075394 -28.382994 -1.568715
RightToeBase 22.265757 -0.000000 -0.000000
1508
root 21.193981 32.498503 -19.270352 -169.932409 4.419324 -180.073075
Spine -27.213515 7.986187 -25.506486
Head 16.319242 -13.728738 2.940164
LeftShoulder -13.966866 -30.844256 -0.178686
LeftArm -36.506769 -9.696796 -46.955150
LeftForeArm 4.941965 0.000000 16.314296
LeftHand -2.767153 -0.000000 3.480044
LeftHandThumb1 -26.253704 0.000000 33.147579
RightShoulder -8.516575 14.704775 -41.240649
RightArm 40.440334 50.835106 -8.150723
RightForeArm -37.496045 -0.000000 13.799894
RightHand -0.264899 -0.000000 -31.503253
RightHandThumb1 -24.326973 -0.000000 -32.862282
LeftUpLeg 13.518301 0.859416 -17.138223
LeftLeg -1.616071 -0.000000 0.000000
LeftFoot -34.804945 18.206531 -16.162743
LeftToeBase 16.707830 -0.000000 -0.000000
RightUpLeg -17.544552 9.360368 23.829604
RightLeg -3.185635 -0.000000 0.000000
RightFoot -4.077452 -28.393597 -1.561767
RightToeBase 22.275829 -0.000000 -0.000000
1509
root 21.183038 32.497459 -19.266355 -169.922571 4.461282 -180.044453
Spine -27.205717 8.037222 -25.431229
Head 16.328523 -13.681880 2.908558
LeftShoulder -13.959956 -30.906364 -0.184320
LeftArm -36.580202 -9.670016 -46.888797
LeftForeArm 4.928127 -0.000000 16.533120
LeftHand -2.737132 0.000000 3.596846
LeftHandThumb1 -26.253704 0.000000 33.147579
RightShoulder -8.456674 14.653249 -41.222486
RightArm 40.427670 50.903298 -8.174855
RightForeArm -37.446709 -0.000000 13.818424
RightHand -0.225493 -0.000000 -31.504819
RightHandThumb1 -24.326973 -0.000000 -32.862282
LeftUpLeg 13.501630 0.874317 -17.139764
LeftLeg -1.622858 -0.000000 0.000000
LeftFoot -34.802843 18.218262 -16.128236
LeftToeBase 16.740363 -0.000000 -0.000000
RightUpLeg -17.548144 9.416827 23.830551
RightLeg -3.188551 -0.000000 0.000000
RightFoot -4.007663 -28.425248 -1.643866
RightToeBase 22.018631 -0.000000 -0.000000
1510
root 21.172318 32.496823 -19.262842 -169.915194 4.507871 -180.009294
Spine -27.203332 8.095441 -25.343461
Head 16.344340 -13.658538 2.843479
LeftShoulder -13.940566 -30.936923 -0.201027
LeftArm -36.657998 -9.712937 -46.776947
LeftForeArm 5.037507 -0.000000 16.825738
LeftHand -2.998066 0.000000 3.652656
LeftHandThumb1 -26.253704 0.000000 33.147579
RightShoulder -8.440024 14.612725 -41.227124
RightArm 40.566489 51.031548 -8.016522
RightForeArm -37.572645 -0.000000 13.864827
RightHand -0.151261 -0.000000 -31.412084
RightHandThumb1 -24.326973 -0.000000 -32.862282
LeftUpLeg 13.488607 0.890774 -17.135789
LeftLeg -1.633628 -0.000000 0.000000
LeftFoot -34.803351 18.232724 -16.133145
LeftToeBase 16.728090 -0.000000 -0.000000
RightUpLeg -17.550240 9.463660 23.838263
RightLeg -3.176526 -0.000000 0.000000
RightFoot -3.986797 -28.397208 -1.686479
RightToeBase 22.129955 -0.000000 -0.000000
1511
root 21.161084 32.496597 -19.258715 -169.908219 4.559285 -179.975656
Spine -27.195547 8.150804 -25.257911
Head 16.341837 -13.626219 2.806904
LeftShoulder -13.933656 -31.006461 -0.215365
LeftArm -36.715293 -9.673208 -46.695422
LeftForeArm 4.937949 -0.000000 17.032527
LeftHand -2.966130 -0.000000 3.601144
LeftHandThumb1 -26.253704 0.000000 33.147579
RightShoulder -8.418148 14.615759 -41.232213
RightArm 40.597243 51.023899 -8.023481
RightForeArm -37.539641 -0.000000 13.856879
RightHand -0.100842 -0.000000 -31.523238
RightHandThumb1 -24.326973 -0.000000 -32.862282
LeftUpLeg 13.473622 0.917577 -17.135873
LeftLeg -1.645497 -0.000000 0.000000
LeftFoot -34.797913 18.247432 -16.141893
LeftToeBase 16.628196 -0.000000 -0.000000
RightUpLeg -17.556786 9.512855 23.848933
RightLeg -3.160661 -0.000000 0.000000
RightFoot -3.992976 -28.435963 -1.658994
RightToeBase 22.136555 -0.000000 -0.000000
